# Blender 4.4.3
# www.blender.org
o Controller_remote
v 0.437500 -0.375000 0.375000
v 0.437500 0.375000 0.375000
v 0.437500 -0.375000 0.500000
v 0.437500 0.375000 0.500000
v -0.437500 -0.375000 0.375000
v -0.437500 0.375000 0.375000
v -0.437500 -0.375000 0.500000
v -0.437500 0.375000 0.500000
v 0.500000 0.375000 -0.500000
v 0.500000 0.500000 -0.500000
v 0.500000 0.375000 0.500000
v 0.500000 0.500000 0.500000
v -0.500000 0.375000 -0.500000
v -0.500000 0.500000 -0.500000
v -0.500000 0.375000 0.500000
v -0.500000 0.500000 0.500000
v 0.500000 0.687500 0.437500
v 0.500000 0.500000 0.437500
v 0.500000 0.687500 0.375000
v 0.500000 0.500000 0.375000
v -0.500000 0.500000 0.375000
v -0.500000 0.687500 0.375000
v -0.500000 0.500000 0.437500
v -0.500000 0.687500 0.437500
v 0.468750 0.750000 0.312500
v 0.468750 1.500000 0.312500
v 0.468750 0.750000 0.437500
v 0.468750 1.500000 0.437500
v -0.468750 0.750000 0.312500
v -0.468750 1.500000 0.312500
v -0.468750 0.750000 0.437500
v -0.468750 1.500000 0.437500
v -0.343750 0.562500 0.436924
v -0.343750 1.250000 0.436924
v -0.343750 0.562500 0.499424
v -0.343750 1.250000 0.499424
v -0.406250 0.562500 0.436924
v -0.406250 1.250000 0.436924
v -0.406250 0.562500 0.499424
v -0.406250 1.250000 0.499424
v 0.406250 0.562500 0.436925
v 0.406250 1.250000 0.436925
v 0.406250 0.562500 0.499425
v 0.406250 1.250000 0.499425
v 0.343750 0.562500 0.436925
v 0.343750 1.250000 0.436925
v 0.343750 0.562500 0.499425
v 0.343750 1.250000 0.499425
v 0.500000 -0.500000 -0.500000
v 0.500000 -0.375000 -0.500000
v 0.500000 -0.500000 0.500000
v 0.500000 -0.375000 0.500000
v -0.500000 -0.500000 -0.500000
v -0.500000 -0.375000 -0.500000
v -0.500000 -0.500000 0.500000
v -0.500000 -0.375000 0.500000
v 0.437500 -0.375000 -0.438075
v 0.437500 0.375000 -0.438075
v 0.437500 -0.375000 -0.375575
v 0.437500 0.375000 -0.375575
v 0.375000 -0.375000 -0.438075
v 0.375000 0.375000 -0.438075
v 0.375000 -0.375000 -0.375575
v 0.375000 0.375000 -0.375575
v -0.375000 -0.375000 -0.438075
v -0.375000 0.375000 -0.438075
v -0.375000 -0.375000 -0.375575
v -0.375000 0.375000 -0.375575
v -0.437500 -0.375000 -0.438075
v -0.437500 0.375000 -0.438075
v -0.437500 -0.375000 -0.375575
v -0.437500 0.375000 -0.375575
vn 1.0000 -0.0000 -0.0000
vn -0.0000 -0.0000 1.0000
vn -1.0000 -0.0000 -0.0000
vn -0.0000 -0.0000 -1.0000
vn -0.0000 -1.0000 -0.0000
vn -0.0000 1.0000 -0.0000
vt 0.507812 0.804688
vt 0.507812 0.992188
vt 0.476562 0.992188
vt 0.476562 0.804688
vt 0.257812 0.992188
vt 0.257812 0.804688
vt 0.226562 0.992188
vt 0.226562 0.804688
vt 0.007812 0.992188
vt 0.007812 0.804688
vt 0.882812 0.601562
vt 0.882812 0.789062
vt 0.867188 0.789062
vt 0.867188 0.601562
vt 0.039062 0.320312
vt 0.039062 0.289062
vt 0.289062 0.289062
vt 0.289062 0.320312
vt 0.320312 0.289062
vt 0.289062 0.039062
vt 0.320312 0.039062
vt 0.289062 0.007812
vt 0.039062 0.039062
vt 0.039062 0.007812
vt 0.289062 0.570312
vt 0.039062 0.570312
vt 0.976562 0.531250
vt 0.726562 0.531250
vt 0.726562 0.515625
vt 0.976562 0.515625
vt 0.992188 0.468750
vt 0.992188 0.515625
vt 0.976562 0.468750
vt 0.726562 0.578125
vt 0.976562 0.578125
vt 0.726562 0.468750
vt 0.695312 0.445312
vt 0.695312 0.257812
vt 0.726562 0.257812
vt 0.726562 0.445312
vt 0.960938 0.257812
vt 0.960938 0.445312
vt 0.992188 0.257812
vt 0.992188 0.445312
vt 0.960938 0.039062
vt 0.960938 0.226562
vt 0.726562 0.226562
vt 0.726562 0.039062
vt 0.726562 0.007812
vt 0.960938 0.007812
vt 0.804688 0.609375
vt 0.804688 0.781250
vt 0.789062 0.781250
vt 0.789062 0.609375
vt 0.773438 0.781250
vt 0.773438 0.609375
vt 0.757812 0.781250
vt 0.757812 0.609375
vt 0.742188 0.781250
vt 0.742188 0.609375
vt 0.742188 0.593750
vt 0.757812 0.593750
vt 0.757812 0.796875
vt 0.742188 0.796875
vt 0.710938 0.609375
vt 0.710938 0.781250
vt 0.695312 0.781250
vt 0.695312 0.609375
vt 0.679688 0.781250
vt 0.679688 0.609375
vt 0.664062 0.781250
vt 0.664062 0.609375
vt 0.726562 0.609375
vt 0.726562 0.781250
vt 0.710938 0.593750
vt 0.726562 0.593750
vt 0.726562 0.796875
vt 0.710938 0.796875
vt 0.007812 0.289062
vt 0.007812 0.039062
vt 0.710938 0.515625
vt 0.710938 0.468750
vt 0.359375 0.320312
vt 0.359375 0.289062
vt 0.609375 0.289062
vt 0.609375 0.320312
vt 0.640625 0.289062
vt 0.609375 0.039062
vt 0.640625 0.039062
vt 0.609375 0.007812
vt 0.359375 0.039062
vt 0.359375 0.007812
vt 0.609375 0.570312
vt 0.359375 0.570312
vt 0.328125 0.289062
vt 0.328125 0.039062
vt 0.851562 0.789062
vt 0.851562 0.601562
vt 0.835938 0.789062
vt 0.835938 0.601562
vt 0.898438 0.601562
vt 0.898438 0.789062
vt 0.945312 0.601562
vt 0.945312 0.789062
vt 0.929688 0.789062
vt 0.929688 0.601562
vt 0.960938 0.601562
vt 0.960938 0.789062
vt 0.914062 0.789062
vt 0.914062 0.601562
vt 0.976562 0.601562
vt 0.976562 0.789062
s 0
f 1/1/1 2/2/1 4/3/1 3/4/1
f 3/4/2 4/3/2 8/5/2 7/6/2
f 7/6/3 8/5/3 6/7/3 5/8/3
f 5/8/4 6/7/4 2/9/4 1/10/4
f 57/11/1 58/12/1 60/13/1 59/14/1
f 11/15/2 12/16/2 16/17/2 15/18/2
f 15/19/3 16/17/3 14/20/3 13/21/3
f 13/22/4 14/20/4 10/23/4 9/24/4
f 11/15/5 15/18/5 13/25/5 9/26/5
f 16/17/6 12/16/6 10/23/6 14/20/6
f 24/27/6 17/28/6 19/29/6 22/30/6
f 23/31/3 24/32/3 22/30/3 21/33/3
f 18/34/2 17/28/2 24/27/2 23/35/2
f 21/33/4 22/30/4 19/29/4 20/36/4
f 25/37/1 26/38/1 28/39/1 27/40/1
f 27/40/2 28/39/2 32/41/2 31/42/2
f 31/42/3 32/41/3 30/43/3 29/44/3
f 29/45/4 30/46/4 26/47/4 25/48/4
f 27/49/5 31/50/5 29/45/5 25/48/5
f 32/41/6 28/39/6 26/47/6 30/46/6
f 33/51/1 34/52/1 36/53/1 35/54/1
f 35/54/2 36/53/2 40/55/2 39/56/2
f 39/56/3 40/55/3 38/57/3 37/58/3
f 37/58/4 38/57/4 34/59/4 33/60/4
f 35/61/5 39/62/5 37/58/5 33/60/5
f 40/63/6 36/64/6 34/59/6 38/57/6
f 41/65/1 42/66/1 44/67/1 43/68/1
f 43/68/2 44/67/2 48/69/2 47/70/2
f 47/70/3 48/69/3 46/71/3 45/72/3
f 45/73/4 46/74/4 42/66/4 41/65/4
f 43/75/5 47/76/5 45/73/5 41/65/5
f 48/77/6 44/78/6 42/66/6 46/74/6
f 11/79/1 9/80/1 10/23/1 12/16/1
f 20/36/1 19/29/1 17/81/1 18/82/1
f 51/83/2 52/84/2 56/85/2 55/86/2
f 55/87/3 56/85/3 54/88/3 53/89/3
f 53/90/4 54/88/4 50/91/4 49/92/4
f 51/83/5 55/86/5 53/93/5 49/94/5
f 56/85/6 52/84/6 50/91/6 54/88/6
f 51/95/1 49/96/1 50/91/1 52/84/1
f 59/14/2 60/13/2 64/97/2 63/98/2
f 63/98/3 64/97/3 62/99/3 61/100/3
f 61/101/4 62/102/4 58/12/4 57/11/4
f 67/103/2 68/104/2 72/105/2 71/106/2
f 65/107/1 66/108/1 68/104/1 67/103/1
f 71/106/3 72/105/3 70/109/3 69/110/3
f 69/111/4 70/112/4 66/108/4 65/107/4
